<?xml version="1.0" encoding="UTF-8"?>
<!DOCTYPE svg PUBLIC "-//W3C//DTD SVG 1.1//EN" "http://www.w3.org/Graphics/SVG/1.1/DTD/svg11.dtd">
<svg xmlns="http://www.w3.org/2000/svg" version="1.1" width="3556px" height="2000px" style="shape-rendering:geometricPrecision; text-rendering:geometricPrecision; image-rendering:optimizeQuality; fill-rule:evenodd; clip-rule:evenodd" xmlns:xlink="http://www.w3.org/1999/xlink">
<g><path style="opacity:0.937" fill="#fefffe" d="M 1588.5,489.5 C 1588.5,796.833 1588.5,1104.17 1588.5,1411.5C 1587.17,1258.17 1586.5,1104.5 1586.5,950.5C 1586.5,796.499 1587.17,642.832 1588.5,489.5 Z"/></g>
<g><path style="opacity:0.999" fill="#f7fe54" d="M 1588.5,489.5 C 2115.83,489.5 2643.17,489.5 3170.5,489.5C 3170.5,796.833 3170.5,1104.17 3170.5,1411.5C 2643.17,1411.5 2115.83,1411.5 1588.5,1411.5C 1588.5,1104.17 1588.5,796.833 1588.5,489.5 Z M 1689.5,559.5 C 1736.06,560.888 1763.22,584.555 1771,630.5C 1772.02,637.799 1772.69,645.132 1773,652.5C 1773.33,795.833 1773.67,939.167 1774,1082.5C 1775.3,1117.67 1782.97,1151.34 1797,1183.5C 1819.38,1222.3 1852.88,1245.13 1897.5,1252C 1933.62,1257.21 1969.62,1256.54 2005.5,1250C 2053.8,1240.04 2086.3,1211.87 2103,1165.5C 2112.31,1139.3 2117.64,1112.3 2119,1084.5C 2119.33,941.5 2119.67,798.5 2120,655.5C 2119.45,633.924 2124.11,613.591 2134,594.5C 2149.53,571.064 2171.53,559.397 2200,559.5C 2249.24,563.409 2275.91,590.076 2280,639.5C 2280.67,786.167 2280.67,932.833 2280,1079.5C 2278.72,1118.82 2273.05,1157.49 2263,1195.5C 2238.22,1271.95 2188.72,1325.79 2114.5,1357C 2064.03,1375.5 2011.86,1384.33 1958,1383.5C 1908.09,1383.76 1858.93,1377.93 1810.5,1366C 1713.9,1340.4 1653.07,1279.23 1628,1182.5C 1620.73,1152.91 1616.06,1122.91 1614,1092.5C 1612.36,941.511 1612.03,790.511 1613,639.5C 1614.19,619.919 1620.53,602.252 1632,586.5C 1647.36,569.235 1666.53,560.235 1689.5,559.5 Z M 3002.5,561.5 C 3002.5,610.5 3002.5,659.5 3002.5,708.5C 2831.17,708.5 2659.83,708.5 2488.5,708.5C 2488.5,659.5 2488.5,610.5 2488.5,561.5C 2659.83,560.167 2831.17,560.167 3002.5,561.5 Z M 2389.5,710.5 C 2422.33,709.502 2455.33,709.168 2488.5,709.5C 2488.67,721.838 2488.5,734.171 2488,746.5C 2455.31,734.072 2422.48,722.072 2389.5,710.5 Z M 3002.5,709.5 C 3051.83,709.5 3101.17,709.5 3150.5,709.5C 3150.5,758.833 3150.5,808.167 3150.5,857.5C 3150.5,808.167 3150.5,758.833 3150.5,709.5C 3101.17,709.5 3051.83,709.5 3002.5,709.5 Z M 2344.5,711.5 C 2437.16,745.16 2529.82,778.827 2622.5,812.5C 2623.17,813.267 2624.01,813.934 2625,814.5C 2625.4,814.272 2625.57,813.938 2625.5,813.5C 2639.67,819.225 2654.01,824.558 2668.5,829.5C 2669.93,830.537 2671.6,831.204 2673.5,831.5C 2685.48,835.818 2697.48,840.151 2709.5,844.5C 2710.93,845.537 2712.6,846.204 2714.5,846.5C 2714.83,846.5 2715.17,846.5 2715.5,846.5C 2718.54,848.346 2721.87,849.679 2725.5,850.5C 2727.42,851.363 2729.42,852.029 2731.5,852.5C 2733.21,853.738 2735.21,854.405 2737.5,854.5C 2755.19,861.734 2773.19,868.401 2791.5,874.5C 2792.93,875.537 2794.6,876.204 2796.5,876.5C 2805.73,879.448 2814.73,882.948 2823.5,887C 2822.29,888.039 2821.29,889.206 2820.5,890.5C 2818.17,892.167 2816.17,894.167 2814.5,896.5C 2808.83,901.5 2803.5,906.833 2798.5,912.5C 2796.17,914.167 2794.17,916.167 2792.5,918.5C 2786.99,923.176 2781.99,928.342 2777.5,934C 2778.1,935.605 2779.1,936.938 2780.5,938C 2785.71,942.052 2791.05,945.885 2796.5,949.5C 2796.97,950.906 2797.97,951.573 2799.5,951.5C 2801.09,953.633 2803.09,955.299 2805.5,956.5C 2805.97,957.906 2806.97,958.573 2808.5,958.5C 2813.13,962.156 2817.79,965.822 2822.5,969.5C 2822.97,970.906 2823.97,971.573 2825.5,971.5C 2832.43,977.639 2839.77,983.306 2847.5,988.5C 2847.97,989.906 2848.97,990.573 2850.5,990.5C 2856.19,995.518 2862.19,1000.18 2868.5,1004.5C 2868.97,1005.91 2869.97,1006.57 2871.5,1006.5C 2877.19,1011.52 2883.19,1016.18 2889.5,1020.5C 2889.97,1021.91 2890.97,1022.57 2892.5,1022.5C 2892.5,1023.17 2892.83,1023.5 2893.5,1023.5C 2893.97,1024.91 2894.97,1025.57 2896.5,1025.5C 2898.09,1027.63 2900.09,1029.3 2902.5,1030.5C 2902.97,1031.91 2903.97,1032.57 2905.5,1032.5C 2917.29,1042.56 2929.62,1051.89 2942.5,1060.5C 2943.58,1062.59 2945.25,1063.92 2947.5,1064.5C 2947.5,1065.17 2947.83,1065.5 2948.5,1065.5C 2948.97,1066.91 2949.97,1067.57 2951.5,1067.5C 2955.25,1071.55 2959.59,1074.88 2964.5,1077.5C 2965.58,1079.59 2967.25,1080.92 2969.5,1081.5C 2970.44,1082.97 2971.77,1083.97 2973.5,1084.5C 2974.26,1086.26 2975.6,1087.26 2977.5,1087.5C 2978.26,1089.26 2979.6,1090.26 2981.5,1090.5C 2981.83,1091.5 2982.5,1092.17 2983.5,1092.5C 2983.97,1093.91 2984.97,1094.57 2986.5,1094.5C 2986.97,1095.91 2987.97,1096.57 2989.5,1096.5C 2991.09,1098.63 2993.09,1100.3 2995.5,1101.5C 2995.97,1102.91 2996.97,1103.57 2998.5,1103.5C 2999.94,1105.06 3001.61,1106.4 3003.5,1107.5C 3003.97,1108.91 3004.97,1109.57 3006.5,1109.5C 3015.19,1116.85 3024.19,1123.85 3033.5,1130.5C 3033.97,1131.91 3034.97,1132.57 3036.5,1132.5C 3039.19,1135.18 3042.19,1137.52 3045.5,1139.5C 3046.26,1141.26 3047.6,1142.26 3049.5,1142.5C 3050.44,1143.97 3051.77,1144.97 3053.5,1145.5C 3054.26,1147.26 3055.6,1148.26 3057.5,1148.5C 3058.94,1150.06 3060.61,1151.4 3062.5,1152.5C 3062.97,1153.91 3063.97,1154.57 3065.5,1154.5C 3068.52,1157.52 3071.85,1160.18 3075.5,1162.5C 3075.97,1163.91 3076.97,1164.57 3078.5,1164.5C 3087.19,1171.85 3096.19,1178.85 3105.5,1185.5C 3105.97,1186.91 3106.97,1187.57 3108.5,1187.5C 3109.26,1189.26 3110.6,1190.26 3112.5,1190.5C 3112.5,1191.17 3112.83,1191.5 3113.5,1191.5C 3113.97,1192.91 3114.97,1193.57 3116.5,1193.5C 3122.19,1198.52 3128.19,1203.18 3134.5,1207.5C 3134.97,1208.91 3135.97,1209.57 3137.5,1209.5C 3140.19,1212.18 3143.19,1214.52 3146.5,1216.5C 3146.5,1216.83 3146.5,1217.17 3146.5,1217.5C 3133.82,1213.16 3121.15,1208.83 3108.5,1204.5C 3107.22,1203.07 3105.55,1202.4 3103.5,1202.5C 3025.3,1173.43 2946.97,1144.77 2868.5,1116.5C 2867.83,1115.73 2866.99,1115.07 2866,1114.5C 2865.6,1114.73 2865.43,1115.06 2865.5,1115.5C 2834.78,1103.37 2803.78,1092.04 2772.5,1081.5C 2771.22,1080.07 2769.55,1079.4 2767.5,1079.5C 2734.27,1066.92 2700.94,1054.42 2667.5,1042C 2683.21,1026.63 2698.54,1010.96 2713.5,995C 2712.9,993.395 2711.9,992.062 2710.5,991C 2688.14,974.158 2665.8,957.324 2643.5,940.5C 2642.56,939.026 2641.23,938.026 2639.5,937.5C 2541.17,862.167 2442.83,786.833 2344.5,711.5 Z M 2340.5,1071.5 C 2389.83,1071.5 2439.17,1071.5 2488.5,1071.5C 2488.5,1120.83 2488.5,1170.17 2488.5,1219.5C 2488.5,1170.17 2488.5,1120.83 2488.5,1071.5C 2439.17,1071.5 2389.83,1071.5 2340.5,1071.5 Z M 3101.5,1218.5 C 3069,1219.5 3036.34,1219.83 3003.5,1219.5C 3003.17,1219.5 3002.83,1219.5 3002.5,1219.5C 3002.33,1207.16 3002.5,1194.83 3003,1182.5C 3035.69,1194.93 3068.52,1206.93 3101.5,1218.5 Z M 2488.5,1220.5 C 2659.83,1220.5 2831.17,1220.5 3002.5,1220.5C 3002.5,1269.5 3002.5,1318.5 3002.5,1367.5C 2831.17,1368.83 2659.83,1368.83 2488.5,1367.5C 2488.5,1318.5 2488.5,1269.5 2488.5,1220.5 Z"/></g>
<g><path style="opacity:0.702" fill="#cdcdcd" d="M 721.5,541.5 C 664.664,541.168 607.998,541.501 551.5,542.5C 551.167,542.5 550.833,542.5 550.5,542.5C 578.659,541.167 607.159,540.5 636,540.5C 664.669,540.5 693.169,540.833 721.5,541.5 Z"/></g>
<g><path style="opacity:0.994" fill="#ececec" d="M 551.5,542.5 C 607.998,541.501 664.664,541.168 721.5,541.5C 730.938,541.68 740.271,542.68 749.5,544.5C 748.833,545.167 748.167,545.833 747.5,546.5C 734.9,544.707 722.233,543.707 709.5,543.5C 657.003,542.501 604.336,542.168 551.5,542.5 Z"/></g>
<g><path style="opacity:0.999" fill="#f0f0f0" d="M 891.5,540.5 C 925.183,539.84 958.517,540.507 991.5,542.5C 957.817,543.16 924.483,542.493 891.5,540.5 Z"/></g>
<g><path style="opacity:0.996" fill="#000000" d="M 1201.5,540.5 C 1235.99,542.165 1270.65,543.165 1305.5,543.5C 1330.68,639.563 1356.18,735.563 1382,831.5C 1407.65,735.882 1433.15,640.216 1458.5,544.5C 1490.33,543.833 1522,543.167 1553.5,542.5C 1553.5,541.833 1553.5,541.167 1553.5,540.5C 1554.6,541.601 1554.76,542.934 1554,544.5C 1512,685.833 1470,827.167 1428,968.5C 1427.5,1038.83 1427.33,1109.17 1427.5,1179.5C 1394.17,1179.5 1360.83,1179.5 1327.5,1179.5C 1327.67,1109.17 1327.5,1038.83 1327,968.5C 1284.73,826.53 1242.57,684.53 1200.5,542.5C 1200.54,541.584 1200.88,540.917 1201.5,540.5 Z"/></g>
<g><path style="opacity:0.999" fill="#f0f0f0" d="M 1458.5,540.5 C 1490.17,540.5 1521.83,540.5 1553.5,540.5C 1553.5,541.167 1553.5,541.833 1553.5,542.5C 1521.48,543.159 1489.82,542.493 1458.5,540.5 Z"/></g>
<g><path style="opacity:0.702" fill="#e0e0e0" d="M 1201.5,540.5 C 1236.5,540.5 1271.5,540.5 1306.5,540.5C 1306.5,541.5 1306.5,542.5 1306.5,543.5C 1306.17,543.5 1305.83,543.5 1305.5,543.5C 1270.65,543.165 1235.99,542.165 1201.5,540.5 Z"/></g>
<g><path style="opacity:0.925" fill="#4b4b4b" d="M 550.5,542.5 C 550.833,542.5 551.167,542.5 551.5,542.5C 604.336,542.168 657.003,542.501 709.5,543.5C 656.833,543.5 604.167,543.5 551.5,543.5C 551.833,754.667 551.5,965.667 550.5,1176.5C 550.5,965.167 550.5,753.833 550.5,542.5 Z"/></g>
<g><path style="opacity:0.998" fill="#000000" d="M 709.5,543.5 C 722.233,543.707 734.9,544.707 747.5,546.5C 775.617,550.807 799.45,563.14 819,583.5C 823.084,588.735 826.917,594.069 830.5,599.5C 839.929,618.567 845.929,638.567 848.5,659.5C 851.236,688.695 851.069,718.028 848,747.5C 844.88,778.572 832.046,804.739 809.5,826C 802.94,830.771 796.274,835.271 789.5,839.5C 788.448,839.351 787.448,839.517 786.5,840C 806.139,847.651 822.306,859.817 835,876.5C 838.956,882.079 842.123,888.079 844.5,894.5C 851.373,911.33 856.039,928.663 858.5,946.5C 859.326,950.982 859.826,955.649 860,960.5C 860.667,987.167 860.667,1013.83 860,1040.5C 859.622,1074.97 849.288,1105.97 829,1133.5C 803.827,1160.5 772.661,1175.33 735.5,1178C 673.851,1179.45 612.185,1179.95 550.5,1179.5C 550.5,1178.5 550.5,1177.5 550.5,1176.5C 551.5,965.667 551.833,754.667 551.5,543.5C 604.167,543.5 656.833,543.5 709.5,543.5 Z M 651.5,634.5 C 670.836,634.333 690.17,634.5 709.5,635C 733.185,639.695 746.019,654.195 748,678.5C 749.724,700.214 749.89,721.88 748.5,743.5C 748.288,753.559 746.288,763.225 742.5,772.5C 732.559,789.485 717.559,798.319 697.5,799C 682.17,799.5 666.837,799.667 651.5,799.5C 651.5,744.5 651.5,689.5 651.5,634.5 Z M 651.5,893.5 C 672.873,893.07 694.206,893.57 715.5,895C 736.252,898.42 749.419,910.253 755,930.5C 757.172,939.373 758.506,948.373 759,957.5C 759.745,986.177 759.579,1014.84 758.5,1043.5C 756.998,1053.33 753.331,1062.33 747.5,1070.5C 737.441,1080.68 725.108,1085.68 710.5,1085.5C 690.833,1085.5 671.167,1085.5 651.5,1085.5C 651.5,1021.5 651.5,957.5 651.5,893.5 Z"/></g>
<g><path style="opacity:0.455" fill="#414141" d="M 891.5,540.5 C 924.483,542.493 957.817,543.16 991.5,542.5C 991.5,542.833 991.5,543.167 991.5,543.5C 958.167,543.5 924.833,543.5 891.5,543.5C 891.833,704.334 891.5,865.001 890.5,1025.5C 890.167,863.666 890.5,701.999 891.5,540.5 Z"/></g>
<g><path style="opacity:0.998" fill="#000000" d="M 991.5,543.5 C 991.184,711.841 991.518,880.174 992.5,1048.5C 995.255,1079.41 1012.25,1095.08 1043.5,1095.5C 1059.49,1095.56 1072.99,1089.9 1084,1078.5C 1085.39,1076.61 1086.56,1074.61 1087.5,1072.5C 1092.16,1063.51 1094.5,1053.85 1094.5,1043.5C 1094.5,1043.17 1094.5,1042.83 1094.5,1042.5C 1095.5,876.334 1095.83,710.001 1095.5,543.5C 1126.83,543.5 1158.17,543.5 1189.5,543.5C 1189.17,704.334 1189.5,865.001 1190.5,1025.5C 1187.78,1146.71 1126.11,1199.87 1005.5,1185C 950.349,1176.18 914.849,1145.01 899,1091.5C 893.467,1069.84 890.634,1047.84 890.5,1025.5C 891.5,865.001 891.833,704.334 891.5,543.5C 924.833,543.5 958.167,543.5 991.5,543.5 Z"/></g>
<g><path style="opacity:0.757" fill="#4b4b4b" d="M 1095.5,540.5 C 1110.82,541.833 1126.49,542.499 1142.5,542.5C 1158.51,542.499 1174.18,541.833 1189.5,540.5C 1190.5,701.999 1190.83,863.666 1190.5,1025.5C 1189.5,865.001 1189.17,704.334 1189.5,543.5C 1158.17,543.5 1126.83,543.5 1095.5,543.5C 1095.83,710.001 1095.5,876.334 1094.5,1042.5C 1094.17,874.999 1094.5,707.666 1095.5,540.5 Z"/></g>
<g><path style="opacity:1" fill="#f0f0f0" d="M 1095.5,540.5 C 1126.83,540.5 1158.17,540.5 1189.5,540.5C 1174.18,541.833 1158.51,542.499 1142.5,542.5C 1126.49,542.499 1110.82,541.833 1095.5,540.5 Z"/></g>
<g><path style="opacity:0.953" fill="#c5c5c5" d="M 749.5,544.5 C 777.458,548.56 800.958,560.893 820,581.5C 824.116,586.445 827.616,591.779 830.5,597.5C 830.5,598.167 830.5,598.833 830.5,599.5C 826.917,594.069 823.084,588.735 819,583.5C 799.45,563.14 775.617,550.807 747.5,546.5C 748.167,545.833 748.833,545.167 749.5,544.5 Z"/></g>
<g><path style="opacity:0.663" fill="#c2c842" d="M 3002.5,561.5 C 2831.17,560.167 2659.83,560.167 2488.5,561.5C 2573.83,560.167 2659.5,559.5 2745.5,559.5C 2831.5,559.5 2917.17,560.167 3002.5,561.5 Z"/></g>
<g><path style="opacity:0.945" fill="#878787" d="M 830.5,597.5 C 841.14,616.71 847.14,637.376 848.5,659.5C 845.929,638.567 839.929,618.567 830.5,599.5C 830.5,598.833 830.5,598.167 830.5,597.5 Z"/></g>
<g><path style="opacity:0.757" fill="#525252" d="M 651.5,634.5 C 651.5,689.5 651.5,744.5 651.5,799.5C 665.461,801.483 679.794,802.15 694.5,801.5C 680.01,802.496 665.343,802.829 650.5,802.5C 650.167,745.762 650.5,689.762 651.5,634.5 Z"/></g>
<g><path style="opacity:0.423" fill="#6e7126" d="M 2488.5,708.5 C 2659.83,708.5 2831.17,708.5 3002.5,708.5C 3052.17,708.5 3101.83,708.5 3151.5,708.5C 3151.83,758.336 3151.5,808.003 3150.5,857.5C 3150.5,808.167 3150.5,758.833 3150.5,709.5C 3101.17,709.5 3051.83,709.5 3002.5,709.5C 2831.17,709.5 2659.83,709.5 2488.5,709.5C 2455.33,709.168 2422.33,709.502 2389.5,710.5C 2387.9,710.688 2386.56,710.188 2385.5,709C 2419.83,708.5 2454.17,708.333 2488.5,708.5 Z"/></g>
<g><path style="opacity:0.961" fill="#7f7f7f" d="M 1458.5,540.5 C 1489.82,542.493 1521.48,543.159 1553.5,542.5C 1522,543.167 1490.33,543.833 1458.5,544.5C 1433.15,640.216 1407.65,735.882 1382,831.5C 1356.18,735.563 1330.68,639.563 1305.5,543.5C 1305.83,543.5 1306.17,543.5 1306.5,543.5C 1332.11,638.253 1357.27,733.253 1382,828.5C 1407.22,732.296 1432.72,636.296 1458.5,540.5 Z"/></g>
<g><path style="opacity:0.898" fill="#797979" d="M 748.5,743.5 C 749.761,753.598 748.094,763.265 743.5,772.5C 743.167,772.5 742.833,772.5 742.5,772.5C 746.288,763.225 748.288,753.559 748.5,743.5 Z"/></g>
<g><path style="opacity:0.985" fill="#dddddd" d="M 742.5,772.5 C 742.833,772.5 743.167,772.5 743.5,772.5C 740.551,781.551 734.884,788.385 726.5,793C 716.516,798.498 705.849,801.331 694.5,801.5C 679.794,802.15 665.461,801.483 651.5,799.5C 666.837,799.667 682.17,799.5 697.5,799C 717.559,798.319 732.559,789.485 742.5,772.5 Z"/></g>
<g><path style="opacity:0.29" fill="#54561d" d="M 2622.5,812.5 C 2623.79,812.263 2624.79,812.596 2625.5,813.5C 2625.57,813.938 2625.4,814.272 2625,814.5C 2624.01,813.934 2623.17,813.267 2622.5,812.5 Z"/></g>
<g><path style="opacity:0.773" fill="#80842c" d="M 2668.5,829.5 C 2670.7,829.12 2672.36,829.787 2673.5,831.5C 2671.6,831.204 2669.93,830.537 2668.5,829.5 Z"/></g>
<g><path style="opacity:0.71" fill="#83872d" d="M 2709.5,844.5 C 2711.7,844.12 2713.36,844.787 2714.5,846.5C 2712.6,846.204 2710.93,845.537 2709.5,844.5 Z"/></g>
<g><path style="opacity:0.812" fill="#8d9231" d="M 2715.5,846.5 C 2719.36,846.77 2722.69,848.103 2725.5,850.5C 2721.87,849.679 2718.54,848.346 2715.5,846.5 Z"/></g>
<g><path style="opacity:0.937" fill="#c2c2c2" d="M 789.5,839.5 C 816.371,849.038 835.038,867.038 845.5,893.5C 845.5,894.167 845.167,894.5 844.5,894.5C 842.123,888.079 838.956,882.079 835,876.5C 822.306,859.817 806.139,847.651 786.5,840C 787.448,839.517 788.448,839.351 789.5,839.5 Z"/></g>
<g><path style="opacity:0.765" fill="#84872d" d="M 2731.5,852.5 C 2733.9,852.259 2735.9,852.926 2737.5,854.5C 2735.21,854.405 2733.21,853.738 2731.5,852.5 Z"/></g>
<g><path style="opacity:0.733" fill="#82862d" d="M 2791.5,874.5 C 2793.7,874.12 2795.36,874.787 2796.5,876.5C 2794.6,876.204 2792.93,875.537 2791.5,874.5 Z"/></g>
<g><path style="opacity:0.733" fill="#9b9f35" d="M 2820.5,890.5 C 2819.5,893.5 2817.5,895.5 2814.5,896.5C 2816.17,894.167 2818.17,892.167 2820.5,890.5 Z"/></g>
<g><path style="opacity:0.7" fill="#808080" d="M 845.5,893.5 C 853.102,910.245 857.436,927.911 858.5,946.5C 856.039,928.663 851.373,911.33 844.5,894.5C 845.167,894.5 845.5,894.167 845.5,893.5 Z"/></g>
<g><path style="opacity:0.686" fill="#979c34" d="M 2798.5,912.5 C 2797.5,915.5 2795.5,917.5 2792.5,918.5C 2794.17,916.167 2796.17,914.167 2798.5,912.5 Z"/></g>
<g><path style="opacity:0.514" fill="#7e822b" d="M 2639.5,937.5 C 2641.23,938.026 2642.56,939.026 2643.5,940.5C 2641.37,940.446 2640.03,939.446 2639.5,937.5 Z"/></g>
<g><path style="opacity:0.639" fill="#7d802b" d="M 2796.5,949.5 C 2798.03,949.427 2799.03,950.094 2799.5,951.5C 2797.97,951.573 2796.97,950.906 2796.5,949.5 Z"/></g>
<g><path style="opacity:0.537" fill="#6d7025" d="M 2805.5,956.5 C 2807.03,956.427 2808.03,957.094 2808.5,958.5C 2806.97,958.573 2805.97,957.906 2805.5,956.5 Z"/></g>
<g><path style="opacity:0.608" fill="#757828" d="M 2822.5,969.5 C 2824.03,969.427 2825.03,970.094 2825.5,971.5C 2823.97,971.573 2822.97,970.906 2822.5,969.5 Z"/></g>
<g><path style="opacity:0.514" fill="#6e7125" d="M 2847.5,988.5 C 2849.03,988.427 2850.03,989.094 2850.5,990.5C 2848.97,990.573 2847.97,989.906 2847.5,988.5 Z"/></g>
<g><path style="opacity:0.584" fill="#6f7226" d="M 2868.5,1004.5 C 2870.03,1004.43 2871.03,1005.09 2871.5,1006.5C 2869.97,1006.57 2868.97,1005.91 2868.5,1004.5 Z"/></g>
<g><path style="opacity:0.608" fill="#767929" d="M 2889.5,1020.5 C 2891.03,1020.43 2892.03,1021.09 2892.5,1022.5C 2890.97,1022.57 2889.97,1021.91 2889.5,1020.5 Z"/></g>
<g><path style="opacity:0.639" fill="#7c802b" d="M 2893.5,1023.5 C 2895.03,1023.43 2896.03,1024.09 2896.5,1025.5C 2894.97,1025.57 2893.97,1024.91 2893.5,1023.5 Z"/></g>
<g><path style="opacity:0.584" fill="#737627" d="M 2902.5,1030.5 C 2904.03,1030.43 2905.03,1031.09 2905.5,1032.5C 2903.97,1032.57 2902.97,1031.91 2902.5,1030.5 Z"/></g>
<g><path style="opacity:0.667" fill="#7f7f7f" d="M 1094.5,1043.5 C 1094.5,1053.85 1092.16,1063.51 1087.5,1072.5C 1087.5,1071.83 1087.17,1071.5 1086.5,1071.5C 1090.74,1062.52 1093.41,1053.18 1094.5,1043.5 Z"/></g>
<g><path style="opacity:0.835" fill="#989d34" d="M 2942.5,1060.5 C 2944.75,1061.08 2946.42,1062.41 2947.5,1064.5C 2945.25,1063.92 2943.58,1062.59 2942.5,1060.5 Z"/></g>
<g><path style="opacity:0.663" fill="#969696" d="M 758.5,1043.5 C 758.404,1053.58 755.404,1062.58 749.5,1070.5C 748.833,1070.5 748.167,1070.5 747.5,1070.5C 753.331,1062.33 756.998,1053.33 758.5,1043.5 Z"/></g>
<g><path style="opacity:0.639" fill="#80832c" d="M 2948.5,1065.5 C 2950.03,1065.43 2951.03,1066.09 2951.5,1067.5C 2949.97,1067.57 2948.97,1066.91 2948.5,1065.5 Z"/></g>
<g><path style="opacity:0.439" fill="#757828" d="M 2767.5,1079.5 C 2769.55,1079.4 2771.22,1080.07 2772.5,1081.5C 2770.45,1081.6 2768.78,1080.93 2767.5,1079.5 Z"/></g>
<g><path style="opacity:0.329" fill="#737728" d="M 2964.5,1077.5 C 2966.75,1078.08 2968.42,1079.41 2969.5,1081.5C 2967.25,1080.92 2965.58,1079.59 2964.5,1077.5 Z"/></g>
<g><path style="opacity:0.992" fill="#e6e6e6" d="M 747.5,1070.5 C 748.167,1070.5 748.833,1070.5 749.5,1070.5C 740.963,1081.44 729.629,1087.1 715.5,1087.5C 694.164,1087.67 672.831,1087.5 651.5,1087C 671.338,1086.83 691.004,1086.33 710.5,1085.5C 725.108,1085.68 737.441,1080.68 747.5,1070.5 Z"/></g>
<g><path style="opacity:0.686" fill="#7f822b" d="M 2973.5,1084.5 C 2975.4,1084.74 2976.74,1085.74 2977.5,1087.5C 2975.6,1087.26 2974.26,1086.26 2973.5,1084.5 Z"/></g>
<g><path style="opacity:1" fill="#7f7f7f" d="M 651.5,893.5 C 651.5,957.5 651.5,1021.5 651.5,1085.5C 671.167,1085.5 690.833,1085.5 710.5,1085.5C 691.004,1086.33 671.338,1086.83 651.5,1087C 672.831,1087.5 694.164,1087.67 715.5,1087.5C 694.006,1088.5 672.34,1088.83 650.5,1088.5C 650.167,1022.76 650.5,957.762 651.5,893.5 Z"/></g>
<g><path style="opacity:0.718" fill="#7d812c" d="M 2977.5,1087.5 C 2979.4,1087.74 2980.74,1088.74 2981.5,1090.5C 2979.6,1090.26 2978.26,1089.26 2977.5,1087.5 Z"/></g>
<g><path style="opacity:0.98" fill="#c8c8c8" d="M 992.5,1048.5 C 996.912,1077.16 1013.75,1091.83 1043,1092.5C 1061.46,1093.35 1075.96,1086.35 1086.5,1071.5C 1087.17,1071.5 1087.5,1071.83 1087.5,1072.5C 1086.56,1074.61 1085.39,1076.61 1084,1078.5C 1072.99,1089.9 1059.49,1095.56 1043.5,1095.5C 1012.25,1095.08 995.255,1079.41 992.5,1048.5 Z"/></g>
<g><path style="opacity:0.306" fill="#4f511b" d="M 2983.5,1092.5 C 2985.03,1092.43 2986.03,1093.09 2986.5,1094.5C 2984.97,1094.57 2983.97,1093.91 2983.5,1092.5 Z"/></g>
<g><path style="opacity:0.671" fill="#82862d" d="M 2986.5,1094.5 C 2988.03,1094.43 2989.03,1095.09 2989.5,1096.5C 2987.97,1096.57 2986.97,1095.91 2986.5,1094.5 Z"/></g>
<g><path style="opacity:0.608" fill="#747728" d="M 2995.5,1101.5 C 2997.03,1101.43 2998.03,1102.09 2998.5,1103.5C 2996.97,1103.57 2995.97,1102.91 2995.5,1101.5 Z"/></g>
<g><path style="opacity:0.494" fill="#80832c" d="M 3003.5,1107.5 C 3005.03,1107.43 3006.03,1108.09 3006.5,1109.5C 3004.97,1109.57 3003.97,1108.91 3003.5,1107.5 Z"/></g>
<g><path style="opacity:0.471" fill="#5c5f20" d="M 2868.5,1116.5 C 2867.21,1116.74 2866.21,1116.4 2865.5,1115.5C 2865.43,1115.06 2865.6,1114.73 2866,1114.5C 2866.99,1115.07 2867.83,1115.73 2868.5,1116.5 Z"/></g>
<g><path style="opacity:0.553" fill="#717527" d="M 3033.5,1130.5 C 3035.03,1130.43 3036.03,1131.09 3036.5,1132.5C 3034.97,1132.57 3033.97,1131.91 3033.5,1130.5 Z"/></g>
<g><path style="opacity:0.71" fill="#7b7f2a" d="M 3045.5,1139.5 C 3047.4,1139.74 3048.74,1140.74 3049.5,1142.5C 3047.6,1142.26 3046.26,1141.26 3045.5,1139.5 Z"/></g>
<g><path style="opacity:0.561" fill="#7f832c" d="M 3053.5,1145.5 C 3055.4,1145.74 3056.74,1146.74 3057.5,1148.5C 3055.6,1148.26 3054.26,1147.26 3053.5,1145.5 Z"/></g>
<g><path style="opacity:0.463" fill="#7c7f2b" d="M 3062.5,1152.5 C 3064.03,1152.43 3065.03,1153.09 3065.5,1154.5C 3063.97,1154.57 3062.97,1153.91 3062.5,1152.5 Z"/></g>
<g><path style="opacity:0.608" fill="#7c7f2a" d="M 3075.5,1162.5 C 3077.03,1162.43 3078.03,1163.09 3078.5,1164.5C 3076.97,1164.57 3075.97,1163.91 3075.5,1162.5 Z"/></g>
<g><path style="opacity:0.537" fill="#6d7026" d="M 3105.5,1185.5 C 3107.03,1185.43 3108.03,1186.09 3108.5,1187.5C 3106.97,1187.57 3105.97,1186.91 3105.5,1185.5 Z"/></g>
<g><path style="opacity:0.576" fill="#81852c" d="M 3108.5,1187.5 C 3110.4,1187.74 3111.74,1188.74 3112.5,1190.5C 3110.6,1190.26 3109.26,1189.26 3108.5,1187.5 Z"/></g>
<g><path style="opacity:0.584" fill="#757928" d="M 3113.5,1191.5 C 3115.03,1191.43 3116.03,1192.09 3116.5,1193.5C 3114.97,1193.57 3113.97,1192.91 3113.5,1191.5 Z"/></g>
<g><path style="opacity:0.392" fill="#6b6e25" d="M 3103.5,1202.5 C 3105.55,1202.4 3107.22,1203.07 3108.5,1204.5C 3106.45,1204.6 3104.78,1203.93 3103.5,1202.5 Z"/></g>
<g><path style="opacity:0.584" fill="#767928" d="M 3134.5,1207.5 C 3136.03,1207.43 3137.03,1208.09 3137.5,1209.5C 3135.97,1209.57 3134.97,1208.91 3134.5,1207.5 Z"/></g>
<g><path style="opacity:1" fill="#757828" d="M 3146.5,1217.5 C 3146.5,1217.17 3146.5,1216.83 3146.5,1216.5C 3147.93,1217.08 3149.26,1217.92 3150.5,1219C 3148.81,1219.48 3147.47,1218.98 3146.5,1217.5 Z"/></g>
<g><path style="opacity:0.408" fill="#686c24" d="M 2340.5,1071.5 C 2340.5,1120.83 2340.5,1170.17 2340.5,1219.5C 2389.83,1219.5 2439.17,1219.5 2488.5,1219.5C 2659.83,1219.5 2831.17,1219.5 3002.5,1219.5C 3002.83,1219.5 3003.17,1219.5 3003.5,1219.5C 3003.5,1219.83 3003.5,1220.17 3003.5,1220.5C 3003.17,1220.5 3002.83,1220.5 3002.5,1220.5C 2831.17,1220.5 2659.83,1220.5 2488.5,1220.5C 2438.83,1220.5 2389.17,1220.5 2339.5,1220.5C 2339.17,1170.66 2339.5,1121 2340.5,1071.5 Z"/></g>
<g><path style="opacity:0.416" fill="#83872d" d="M 3101.5,1218.5 C 3102.92,1218.71 3104.26,1219.21 3105.5,1220C 3071.5,1220.5 3037.5,1220.67 3003.5,1220.5C 3003.5,1220.17 3003.5,1219.83 3003.5,1219.5C 3036.34,1219.83 3069,1219.5 3101.5,1218.5 Z"/></g>
<g><path style="opacity:0.998" fill="#f3fa53" d="M 602.5,1343.5 C 602.821,1345.05 603.821,1345.71 605.5,1345.5C 612.3,1346.11 619.133,1346.44 626,1346.5C 639.522,1346.05 653.022,1345.55 666.5,1345C 667.664,1356.56 666.831,1368.06 664,1379.5C 663.5,1383.67 661.167,1385.67 657,1385.5C 622.856,1384.05 588.689,1383.39 554.5,1383.5C 555.026,1356.5 555.693,1329.5 556.5,1302.5C 556.353,1281.32 555.686,1260.15 554.5,1239C 554.519,1235.58 554.853,1232.25 555.5,1229C 590.205,1229.47 624.872,1229.64 659.5,1229.5C 660.806,1230.91 661.64,1232.58 662,1234.5C 663.719,1245.36 664.219,1256.2 663.5,1267C 643.564,1265.45 623.564,1264.78 603.5,1265C 602.584,1265.37 601.75,1265.87 601,1266.5C 599.092,1271.82 599.092,1277.16 601,1282.5C 601.5,1284.33 602.667,1285.5 604.5,1286C 623.204,1286.57 641.871,1286.23 660.5,1285C 661.081,1285.89 661.415,1286.89 661.5,1288C 659.607,1300.09 658.607,1312.26 658.5,1324.5C 639.168,1323.32 619.835,1323.32 600.5,1324.5C 599.407,1328.11 599.24,1331.77 600,1335.5C 600.098,1338.52 600.932,1341.19 602.5,1343.5 Z"/></g>
<g><path style="opacity:0.999" fill="#f3fa53" d="M 683.5,1228.5 C 698.412,1228.18 713.245,1228.51 728,1229.5C 725.464,1279.29 724.964,1329.12 726.5,1379C 726.611,1381.29 725.611,1382.79 723.5,1383.5C 711.86,1384.63 700.194,1384.79 688.5,1384C 686.667,1383.5 685.5,1382.33 685,1380.5C 685.6,1339.85 685.6,1299.18 685,1258.5C 684.592,1249.79 683.759,1241.12 682.5,1232.5C 682.623,1231.08 682.957,1229.74 683.5,1228.5 Z"/></g>
<g><path style="opacity:0.996" fill="#f0f652" d="M 1311.5,1231.5 C 1331.65,1230.48 1340.49,1239.81 1338,1259.5C 1335.67,1265.16 1331.5,1268.66 1325.5,1270C 1314.17,1272.89 1304.67,1270.05 1297,1261.5C 1291.44,1246.28 1296.28,1236.28 1311.5,1231.5 Z"/></g>
<g><path style="opacity:0.997" fill="#f3fa53" d="M 869.5,1240.5 C 882.146,1242.33 894.813,1244.16 907.5,1246C 908.108,1247.23 908.441,1248.56 908.5,1250C 907.811,1257.5 907.145,1265 906.5,1272.5C 906.515,1274.63 907.015,1276.63 908,1278.5C 917.085,1278.99 926.252,1278.99 935.5,1278.5C 935.18,1290.18 934.514,1301.85 933.5,1313.5C 925.221,1313.72 916.888,1313.88 908.5,1314C 907.349,1323.42 907.182,1332.92 908,1342.5C 909.924,1348.54 914.091,1351.21 920.5,1350.5C 924.858,1349.99 929.191,1349.33 933.5,1348.5C 935.1,1348.55 936.6,1348.88 938,1349.5C 937.778,1358.17 937.112,1366.84 936,1375.5C 918.209,1386.18 899.376,1388.35 879.5,1382C 874.123,1378.96 870.623,1374.46 869,1368.5C 868.597,1350.82 868.597,1333.16 869,1315.5C 865.354,1313.97 861.521,1312.8 857.5,1312C 856.878,1310.43 856.544,1308.76 856.5,1307C 857.26,1299.18 857.427,1291.34 857,1283.5C 860.965,1282.78 864.631,1281.45 868,1279.5C 868.749,1270.48 868.582,1261.48 867.5,1252.5C 868.007,1248.43 868.674,1244.43 869.5,1240.5 Z"/></g>
<g><path style="opacity:0.997" fill="#f1f852" d="M 1496.5,1268.5 C 1500.18,1268.33 1503.85,1268.5 1507.5,1269C 1513.65,1276.79 1518.65,1285.29 1522.5,1294.5C 1522.17,1295.17 1521.83,1295.83 1521.5,1296.5C 1516.87,1297.33 1512.2,1297.83 1507.5,1298C 1499.21,1300.42 1496.71,1305.59 1500,1313.5C 1504.67,1318.83 1509.33,1324.17 1514,1329.5C 1521.56,1343.04 1521.22,1356.38 1513,1369.5C 1500.11,1381.37 1484.94,1387.2 1467.5,1387C 1461.47,1379.27 1456.47,1370.93 1452.5,1362C 1452.75,1360.67 1453.42,1359.67 1454.5,1359C 1460.56,1357.92 1466.56,1356.59 1472.5,1355C 1479.34,1350.45 1480.18,1344.95 1475,1338.5C 1468.91,1332.41 1463.57,1325.74 1459,1318.5C 1454.19,1304.24 1457.35,1292.07 1468.5,1282C 1477,1275.58 1486.34,1271.08 1496.5,1268.5 Z"/></g>
<g><path style="opacity:0.997" fill="#f2f953" d="M 787.5,1271.5 C 821.196,1268.72 841.696,1283.72 849,1316.5C 850.037,1322.39 849.371,1328.06 847,1333.5C 845.442,1335.77 843.276,1336.93 840.5,1337C 820.864,1339.22 801.197,1341.06 781.5,1342.5C 783.583,1348.59 787.917,1352.42 794.5,1354C 808.585,1357.18 821.085,1354.02 832,1344.5C 839.333,1352.16 843.666,1361.16 845,1371.5C 837.228,1379.64 827.728,1384.47 816.5,1386C 798.333,1389.04 781.333,1386.04 765.5,1377C 750.221,1365.22 742.554,1349.55 742.5,1330C 743.035,1299 758.035,1279.5 787.5,1271.5 Z M 789.5,1300.5 C 798.731,1299.36 805.231,1303.03 809,1311.5C 809.808,1313.58 809.641,1315.58 808.5,1317.5C 798.937,1319.9 789.27,1320.57 779.5,1319.5C 778.862,1311.11 782.195,1304.78 789.5,1300.5 Z"/></g>
<g><path style="opacity:0.998" fill="#f2f953" d="M 1405.5,1271.5 C 1417.83,1271 1429.5,1273.5 1440.5,1279C 1441.94,1280.13 1442.61,1281.63 1442.5,1283.5C 1440.53,1292.89 1437.86,1302.06 1434.5,1311C 1428.13,1310.33 1421.79,1309.16 1415.5,1307.5C 1399.04,1310.41 1392.54,1320.07 1396,1336.5C 1400,1345.48 1407,1350.15 1417,1350.5C 1422.66,1349.34 1428.16,1347.67 1433.5,1345.5C 1434.65,1345.82 1435.48,1346.48 1436,1347.5C 1439.48,1357.57 1441.15,1367.9 1441,1378.5C 1434.25,1382.97 1426.75,1385.47 1418.5,1386C 1383.58,1388.4 1362.42,1372.57 1355,1338.5C 1351.88,1313.17 1360.71,1293.33 1381.5,1279C 1389.15,1274.95 1397.15,1272.45 1405.5,1271.5 Z"/></g>
<g><path style="opacity:0.998" fill="#f3fa53" d="M 1085.5,1272.5 C 1130.81,1273.31 1151.31,1296.31 1147,1341.5C 1143.64,1360.53 1133.14,1374.03 1115.5,1382C 1103.73,1385.37 1091.73,1386.37 1079.5,1385C 1051.45,1377.77 1036.79,1359.61 1035.5,1330.5C 1036.42,1297.21 1053.09,1277.88 1085.5,1272.5 Z M 1089.5,1307.5 C 1099.8,1307.74 1106.64,1312.74 1110,1322.5C 1112.71,1334.91 1108.54,1344.07 1097.5,1350C 1085.38,1352.19 1077.54,1347.35 1074,1335.5C 1071.18,1321.44 1076.35,1312.11 1089.5,1307.5 Z"/></g>
<g><path style="opacity:0.514" fill="#7c7f2a" d="M 1196.5,1275.5 C 1197.27,1274.85 1198.27,1274.52 1199.5,1274.5C 1201.03,1274.64 1202.03,1275.31 1202.5,1276.5C 1200.62,1275.66 1198.62,1275.33 1196.5,1275.5 Z"/></g>
<g><path style="opacity:0.998" fill="#f3fa53" d="M 1196.5,1275.5 C 1198.62,1275.33 1200.62,1275.66 1202.5,1276.5C 1203.01,1280.57 1203.84,1284.57 1205,1288.5C 1215.5,1280.33 1227.33,1275.66 1240.5,1274.5C 1256.61,1273.62 1267.44,1280.62 1273,1295.5C 1273.67,1324.5 1273.67,1353.5 1273,1382.5C 1272.25,1383.13 1271.42,1383.63 1270.5,1384C 1259.83,1384.67 1249.17,1384.67 1238.5,1384C 1236.9,1383.73 1235.4,1383.23 1234,1382.5C 1233.67,1361.17 1233.33,1339.83 1233,1318.5C 1228.58,1307.94 1221.42,1305.78 1211.5,1312C 1209.67,1313.83 1207.83,1315.67 1206,1317.5C 1205.82,1339.21 1205.32,1360.88 1204.5,1382.5C 1203.62,1383.25 1202.62,1383.75 1201.5,1384C 1191.17,1384.67 1180.83,1384.67 1170.5,1384C 1168.9,1383.73 1167.4,1383.23 1166,1382.5C 1165.67,1360.17 1165.33,1337.83 1165,1315.5C 1164.65,1304.67 1163.15,1294 1160.5,1283.5C 1160.61,1282.56 1160.94,1281.72 1161.5,1281C 1173.16,1279.12 1184.83,1277.29 1196.5,1275.5 Z"/></g>
<g><path style="opacity:0.998" fill="#f2f953" d="M 982.5,1274.5 C 984.604,1274.2 986.604,1274.53 988.5,1275.5C 989.171,1279.53 990.004,1283.53 991,1287.5C 999.607,1281.08 1009.27,1277.41 1020,1276.5C 1022.3,1276.49 1024.47,1276.99 1026.5,1278C 1025.73,1289.92 1025.73,1301.92 1026.5,1314C 1026.02,1315.76 1025.36,1317.43 1024.5,1319C 1016.5,1319.33 1008.5,1319.67 1000.5,1320C 997.943,1320.69 996.109,1322.19 995,1324.5C 993.885,1331.93 993.385,1339.43 993.5,1347C 993.94,1358.84 994.107,1370.67 994,1382.5C 993.25,1383.13 992.416,1383.63 991.5,1384C 979.977,1384.78 968.477,1384.61 957,1383.5C 955.674,1383.25 954.674,1382.58 954,1381.5C 953.667,1356.83 953.333,1332.17 953,1307.5C 952.272,1299.19 950.772,1291.02 948.5,1283C 949.093,1281.12 950.427,1280.12 952.5,1280C 962.771,1278.9 972.771,1277.07 982.5,1274.5 Z"/></g>
<g><path style="opacity:0.998" fill="#f2f953" d="M 1325.5,1279.5 C 1329.93,1279.23 1334.26,1279.56 1338.5,1280.5C 1336.68,1314.8 1336.01,1349.13 1336.5,1383.5C 1324.86,1384.58 1313.19,1384.75 1301.5,1384C 1299.9,1383.73 1298.4,1383.23 1297,1382.5C 1296.99,1347.8 1296.15,1313.14 1294.5,1278.5C 1304.83,1278.87 1315.17,1279.21 1325.5,1279.5 Z"/></g>
<g><path style="opacity:0.702" fill="#a5a939" d="M 1325.5,1279.5 C 1327.47,1278.84 1329.64,1278.5 1332,1278.5C 1334.61,1278.53 1336.78,1279.2 1338.5,1280.5C 1334.26,1279.56 1329.93,1279.23 1325.5,1279.5 Z"/></g>
<g><path style="opacity:0.796" fill="#7f832d" d="M 602.5,1343.5 C 603.71,1343.93 604.71,1344.6 605.5,1345.5C 603.821,1345.71 602.821,1345.05 602.5,1343.5 Z"/></g>
<g><path style="opacity:0.663" fill="#c2c842" d="M 2488.5,1367.5 C 2659.83,1368.83 2831.17,1368.83 3002.5,1367.5C 2917.17,1368.83 2831.5,1369.5 2745.5,1369.5C 2659.5,1369.5 2573.83,1368.83 2488.5,1367.5 Z"/></g>
</svg>
